#N canvas 523 50 911 413 12;
#N canvas 0 22 450 300 (subpatch) 0;
#X array soundsample 44104 float 0;
#X coords 0 1.02 44103 -1.02 200 130 1 0 0;
#X restore 585 93 graph;
#X obj 65 319 loadbang;
#X obj 65 368 soundfiler;
#X obj 141 123 phasor~ 1;
#X obj 141 151 *~ 44100;
#X floatatom 141 91 5 0 0 0 - - -;
#X obj 141 207 dac~;
#X text 63 90 speed (Hz);
#X obj 205 151 tabwrite~ sawtooth;
#X msg 298 128 bang;
#N canvas 0 22 450 300 (subpatch) 0;
#X array sawtooth 4410 float 0;
#X coords 0 1.02 4410 0 200 130 1 0 0;
#X restore 368 94 graph;
#X obj 141 178 tabread4~ soundsample;
#X msg 65 343 read drone.wav soundsample;
#X text 40 123 sawtooth wave;
#X text 51 151 sample rate;
#X msg 269 343 \; pd dsp 1;
#X connect 1 0 12 0;
#X connect 1 0 15 0;
#X connect 3 0 4 0;
#X connect 3 0 8 0;
#X connect 4 0 11 0;
#X connect 5 0 3 0;
#X connect 9 0 8 0;
#X connect 11 0 6 0;
#X connect 11 0 6 1;
#X connect 12 0 2 0;
